<svg xmlns="http://www.w3.org/2000/svg" viewBox="0 0 32 32">
  <defs>
    <linearGradient id="g" x1="0" y1="0" x2="1" y2="1">
      <stop offset="0%" stop-color="#818cf8"/>
      <stop offset="100%" stop-color="#4f46e5"/>
    </linearGradient>
  </defs>
  <rect width="32" height="32" rx="8" fill="url(#g)"/>
  <g transform="translate(6 5)" fill="none" stroke="white" stroke-width="1.6" stroke-linecap="round" stroke-linejoin="round">
    <path d="M10 22l-3-3c-1.5-1.5-2.5-4-2.5-6.5C4.5 7 7 3 10 1c3 2 5.5 6 5.5 11.5 0 2.5-1 5-2.5 6.5l-3 3z" fill="rgba(255,255,255,0.15)"/>
    <circle cx="10" cy="10.5" r="2.2"/>
    <path d="M4.5 16.5C3 17.5 2 19 2 19l3.5 1"/>
    <path d="M15.5 16.5C17 17.5 18 19 18 19l-3.5 1"/>
    <path d="M10 22v-2"/>
  </g>
</svg>
